<svg width="220" height="243" viewBox="0 0 220 243" fill="none" xmlns="http://www.w3.org/2000/svg">
<path d="M0 33.0247C0 28.3106 0 25.9536 1.46447 24.4891C2.92893 23.0247 5.28595 23.0247 10 23.0247H44.7734C49.4875 23.0247 51.8445 23.0247 53.309 24.4891C54.7734 25.9536 54.7734 28.3106 54.7734 33.0247V183.345C54.7734 185.231 54.7734 186.173 55.3592 186.759C55.945 187.345 56.8878 187.345 58.7734 187.345H160.32C162.206 187.345 163.149 187.345 163.735 186.759C164.32 186.173 164.32 185.231 164.32 183.345V33.0247C164.32 28.3106 164.32 25.9536 165.785 24.4891C167.249 23.0247 169.606 23.0247 174.32 23.0247H209.094C213.808 23.0247 216.165 23.0247 217.629 24.4891C219.094 25.9536 219.094 28.3106 219.094 33.0247V232.118C219.094 236.832 219.094 239.189 217.629 240.654C216.165 242.118 213.808 242.118 209.094 242.118H10C5.28595 242.118 2.92893 242.118 1.46447 240.654C0 239.189 0 236.832 0 232.118V33.0247Z" fill="white"/>
<path d="M140.081 -4.37113e-07C144.795 -2.31056e-07 147.152 -1.28028e-07 148.616 1.46447C150.081 2.92893 150.081 5.28595 150.081 10L150.081 78.3811C150.081 83.0951 150.081 85.4522 148.616 86.9166C147.152 88.3811 144.795 88.3811 140.081 88.3811L79.0431 88.3811C74.329 88.3811 71.972 88.3811 70.5075 86.9166C69.0431 85.4522 69.0431 83.0951 69.0431 78.3811L69.0431 10C69.0431 5.28595 69.0431 2.92893 70.5075 1.46446C71.972 -3.41424e-06 74.329 -3.31122e-06 79.0431 -3.10516e-06L140.081 -4.37113e-07Z" fill="#53DAA2"/>
</svg>
