<svg width="613" height="154" viewBox="0 0 613 154" fill="none" xmlns="http://www.w3.org/2000/svg">
<path d="M79.9375 -4.37114e-07C84.6515 -2.31056e-07 87.0086 -1.28028e-07 88.473 1.46447C89.9375 2.92893 89.9375 5.28595 89.9375 10L89.9375 46C89.9375 50.714 89.9375 53.0711 88.473 54.5355C87.0086 56 84.6515 56 79.9375 56L48.9375 56C44.2235 56 41.8664 56 40.402 54.5355C38.9375 53.0711 38.9375 50.714 38.9375 46L38.9375 10C38.9375 5.28595 38.9375 2.92893 40.402 1.46446C41.8664 -2.10125e-06 44.2235 -1.99822e-06 48.9375 -1.79217e-06L79.9375 -4.37114e-07Z" fill="#4C68FC"/>
<path d="M177.246 80.1206V144C177.246 148.714 177.246 151.071 175.782 152.536C174.317 154 171.96 154 167.246 154H155.02C150.305 154 147.948 154 146.484 152.536C145.02 151.071 145.02 148.714 145.02 144V35.0937C145.02 30.3797 145.02 28.0227 146.484 26.5582C147.948 25.0938 150.305 25.0938 155.02 25.0938H163.678C165.721 25.0938 166.743 25.0938 167.662 25.4744C168.581 25.855 169.304 26.5775 170.749 28.0227L241.699 98.9731V35.0937C241.699 30.3797 241.699 28.0227 243.164 26.5582C244.628 25.0938 246.985 25.0938 251.699 25.0938H263.926C268.64 25.0938 270.997 25.0938 272.461 26.5582C273.926 28.0227 273.926 30.3797 273.926 35.0938V144C273.926 148.714 273.926 151.071 272.461 152.536C270.997 154 268.64 154 263.926 154H255.268C253.224 154 252.202 154 251.283 153.619C250.364 153.239 249.642 152.516 248.197 151.071L177.246 80.1206Z" fill="#303340"/>
<path d="M312.266 25.0938C316.98 25.0938 319.337 25.0938 320.801 26.5582C322.266 28.0227 322.266 30.3797 322.266 35.0938V144C322.266 148.714 322.266 151.071 320.801 152.536C319.337 154 316.98 154 312.266 154H300.039C295.325 154 292.968 154 291.504 152.536C290.039 151.071 290.039 148.714 290.039 144V35.0937C290.039 30.3797 290.039 28.0227 291.504 26.5582C292.968 25.0938 295.325 25.0938 300.039 25.0938H312.266Z" fill="#303340"/>
<path d="M338.379 35.0937C338.379 30.3797 338.379 28.0227 339.843 26.5582C341.308 25.0938 343.665 25.0938 348.379 25.0938H457.285C461.999 25.0938 464.356 25.0938 465.821 26.5582C467.285 28.0227 467.285 30.3797 467.285 35.0938V144C467.285 148.714 467.285 151.071 465.821 152.536C464.356 154 461.999 154 457.285 154H348.379C343.665 154 341.308 154 339.843 152.536C338.379 151.071 338.379 148.714 338.379 144V35.0937ZM374.605 57.3203C372.72 57.3203 371.777 57.3203 371.191 57.9061C370.605 58.4919 370.605 59.4347 370.605 61.3203V117.773C370.605 119.659 370.605 120.602 371.191 121.188C371.777 121.773 372.72 121.773 374.605 121.773H431.059C432.944 121.773 433.887 121.773 434.473 121.188C435.059 120.602 435.059 119.659 435.059 117.773V61.3203C435.059 59.4347 435.059 58.4919 434.473 57.9061C433.887 57.3203 432.944 57.3203 431.059 57.3203H374.605Z" fill="#303340"/>
<path d="M531.738 57.3203H493.398C488.684 57.3203 486.327 57.3203 484.863 55.8558C483.398 54.3914 483.398 52.0344 483.398 47.3203V35.0938C483.398 30.3797 483.398 28.0227 484.863 26.5582C486.327 25.0938 488.684 25.0938 493.398 25.0938H602.305C607.019 25.0938 609.376 25.0938 610.84 26.5582C612.305 28.0227 612.305 30.3797 612.305 35.0938V47.3203C612.305 52.0344 612.305 54.3914 610.84 55.8558C609.376 57.3203 607.019 57.3203 602.305 57.3203H563.965V144C563.965 148.714 563.965 151.071 562.5 152.536C561.036 154 558.679 154 553.965 154H541.738C537.024 154 534.667 154 533.203 152.536C531.738 151.071 531.738 148.714 531.738 144V57.3203Z" fill="#303340"/>
<path d="M0 35.0937C0 30.3797 0 28.0227 1.46447 26.5582C2.92893 25.0938 5.28595 25.0938 10 25.0938H22.2266C26.9406 25.0938 29.2976 25.0938 30.7621 26.5582C32.2266 28.0227 32.2266 30.3797 32.2266 35.0938V117.773C32.2266 119.659 32.2266 120.602 32.8123 121.188C33.3981 121.773 34.3409 121.773 36.2266 121.773H92.6797C94.5653 121.773 95.5081 121.773 96.0939 121.188C96.6797 120.602 96.6797 119.659 96.6797 117.773V35.0937C96.6797 30.3797 96.6797 28.0227 98.1441 26.5582C99.6086 25.0938 101.966 25.0938 106.68 25.0938H118.906C123.62 25.0938 125.977 25.0938 127.442 26.5582C128.906 28.0227 128.906 30.3797 128.906 35.0938V144C128.906 148.714 128.906 151.071 127.442 152.536C125.977 154 123.62 154 118.906 154H10C5.28595 154 2.92893 154 1.46447 152.536C0 151.071 0 148.714 0 144V35.0937Z" fill="#303340"/>
</svg>
